<?xml version="1.0" encoding="utf-8"?>
<!-- Generator: Avocode 2.6.0 - http://avocode.com -->
<svg height="29" width="15" xmlns:xlink="http://www.w3.org/1999/xlink" xmlns="http://www.w3.org/2000/svg" viewBox="0 0 15 29">
    <path fill="#000000" opacity="0.68" fill-rule="evenodd" d="M 0.67 24.92 L 10.49 14.25 Z L 0.54 3.45 Z L 0.54 3.45 Z C 0.22 3.08 0.02 2.58 0.02 2.03 C 0.02 0.91 0.86 0 1.89 0 C 2.4 0 2.86 0.22 3.19 0.57 L 3.19 0.57 Z L 14.44 12.78 Z L 14.44 12.78 Z C 14.79 13.15 15.01 13.67 15.01 14.25 C 15.01 14.25 15.01 14.25 15.01 14.25 C 15.01 14.25 15.01 14.26 15.01 14.26 C 15.01 14.83 14.79 15.35 14.44 15.72 L 14.44 15.72 Z L 3.19 27.94 Z L 3.19 27.93 Z C 2.85 28.28 2.39 28.5 1.89 28.5 C 0.86 28.5 0.02 27.59 0.02 26.46 C 0.02 25.85 0.27 25.29 0.67 24.92 Z" />
</svg>