<svg xmlns="http://www.w3.org/2000/svg" style="width:0; height:0; visibility:hidden;">
    <symbol id="icon_basket-add" viewBox="0 0 47 40">
       <path fill="#FFF" d="M37.6 25.4c-5.2 0-9.4-4.2-9.4-9.5s4.2-9.5 9.4-9.5 9.4 4.3 9.4 9.5-4.2 9.5-9.4 9.5zm4.3-11.7h-2.2v-2.2c0-1.2-1-2.2-2.2-2.2-1.2 0-2.2 1-2.2 2.2v2.2h-2.2c-1.2 0-2.2 1-2.2 2.2s1 2.2 2.2 2.2h2.2v2.2c0 1.2 1 2.2 2.2 2.2 1.2 0 2.2-1 2.2-2.2v-2.2h2.2c1.2 0 2.2-1 2.2-2.2s-1-2.2-2.2-2.2zM28.7 8.4l-2.4-4.6c-.2-.3-.3-.6-.3-1 0-1.2 1-2.2 2.2-2.2.9 0 1.6.5 1.9 1.2l2 3.8c-1.3.7-2.5 1.7-3.4 2.8zm-7.3-4.6L16.5 13h-4.9l5.9-11.2c.4-.7 1.1-1.2 1.9-1.2 1.2 0 2.2 1 2.2 2.2 0 .4-.1.7-.2 1zm-3 11.4H26v.7c0 3.7 1.7 7 4.4 9.1v8.4c0 1.2 1 2.2 2.2 2.2s2.2-1 2.2-2.2v-6.2c.9.2 1.9.4 2.9.4 1.2 0 2.4-.2 3.5-.5l-2.8 11.3c-.2 1-1.1 1.7-2.1 1.7H11.5c-1 0-1.9-.7-2.1-1.7L4.7 19.6H2.8c-1.2 0-2.2-1-2.2-2.2 0-1.2 1-2.2 2.2-2.2h15.6zm3.2 18.2c0 1.2 1 2.2 2.2 2.2 1.2 0 2.2-1 2.2-2.2V21.8c0-1.2-1-2.2-2.2-2.2-1.2 0-2.2 1-2.2 2.2v11.6zm-4.3-11.6c0-1.2-1-2.2-2.2-2.2-1.2 0-2.2 1-2.2 2.2v11.7c0 1.2 1 2.2 2.2 2.2 1.2 0 2.2-1 2.2-2.2V21.8z"/> 
    </symbol>
    <symbol id="icon_beer" viewBox="0 0 50 44">
      <path fill="#FFF" d="M14 24c-1.1 0-2.1-.4-2.8-1.2-.8-.8-1.2-1.7-1.2-2.8v-8h8v12h-4zm32 8V7l2-1-1-6H17l-1 4H1L0 8l2 2v10c0 3.3 1.2 6.1 3.5 8.5C7.9 30.8 10.7 32 14 32h4l-4 6v6h36v-6l-4-6z"/>
    </symbol>
    <symbol id="icon_behance" viewBox="0 0 18 12">
       <path fill="currentColor" d="M12.1 1.2h4.3v1.1h-4.3V1.2zM18 7.6h-5.6c.1 1.3.7 1.8 1.9 1.8.8 0 1.5-.3 1.7-.8h1.7c-.6 1.8-1.7 2.3-3.5 2.3-2.4 0-4-1.7-4-4s1.6-4.1 4-4.1c2.7.2 3.9 2.5 3.8 4.8zm-5.6-1.5h3.5c-.2-1.1-.7-1.5-1.7-1.5-1.4 0-1.8.9-1.8 1.5zM9.7 7.8c0 2.2-1.8 3.1-3.8 3.1H.7V.2h5.1c2 0 3.4.7 3.4 2.7 0 1-.5 1.8-1.5 2.2 1.4.4 2 1.4 2 2.7zM5.1 2H2.9v2.5h2.4c.8 0 1.4-.4 1.4-1.3 0-1-.8-1.2-1.6-1.2zm.3 4.1H2.9V9h2.5c.9 0 1.7-.3 1.7-1.4.1-1.1-.6-1.5-1.7-1.5z"/> 
    </symbol>
    <symbol id="icon_check-mark" viewBox="0 0 70 70">
       <path fill="#ec4848" d="M26.474 70c-2.176 0-4.234-1.018-5.557-2.764L3.05 43.64C.724 40.57 1.33 36.2 4.4 33.874c3.073-2.326 7.44-1.717 9.765 1.35l11.752 15.518L55.474 3.285C57.51.02 61.806-.98 65.078 1.053c3.268 2.034 4.266 6.334 2.23 9.602l-34.916 56.06c-1.213 1.95-3.307 3.175-5.6 3.28-.107.003-.212.005-.318.005z"/> 
    </symbol>
    <symbol id="icon_check" viewBox="0 0 58 44">
      <path fill="#FFF" d="M56.9 6.1l-5.1-5c-.7-.7-1.5-1-2.5-1s-1.8.3-2.5 1L22.2 25.4l-11-10.9c-.7-.7-1.5-1-2.5-1s-1.8.4-2.5 1l-5.1 5C.4 20.2 0 21 0 22s.4 1.8 1 2.5l13.5 13.4 5.1 5c.7.7 1.5 1 2.5 1s1.9-.3 2.5-1l5.1-5 27.1-26.8c.7-.7 1.1-1.5 1.1-2.5s-.3-1.8-1-2.5z"/>
    </symbol>
    <symbol id="icon_close" viewBox="0 0 475.2 475.2">
       <path fill="currentColor" d="M405.6 69.6C360.7 24.7 301.1 0 237.6 0s-123.1 24.7-168 69.6S0 174.1 0 237.6s24.7 123.1 69.6 168 104.5 69.6 168 69.6 123.1-24.7 168-69.6 69.6-104.5 69.6-168-24.7-123.1-69.6-168zm-19.1 316.9c-39.8 39.8-92.7 61.7-148.9 61.7s-109.1-21.9-148.9-61.7c-82.1-82.1-82.1-215.7 0-297.8C128.5 48.9 181.4 27 237.6 27s109.1 21.9 148.9 61.7c82.1 82.1 82.1 215.7 0 297.8z"/> <path fill="currentColor" d="M342.3 132.9c-5.3-5.3-13.8-5.3-19.1 0l-85.6 85.6-85.6-85.6c-5.3-5.3-13.8-5.3-19.1 0-5.3 5.3-5.3 13.8 0 19.1l85.6 85.6-85.6 85.6c-5.3 5.3-5.3 13.8 0 19.1 2.6 2.6 6.1 4 9.5 4s6.9-1.3 9.5-4l85.6-85.6 85.6 85.6c2.6 2.6 6.1 4 9.5 4 3.5 0 6.9-1.3 9.5-4 5.3-5.3 5.3-13.8 0-19.1l-85.4-85.6 85.6-85.6c5.3-5.3 5.3-13.8 0-19.1z"/> 
    </symbol>
    <symbol id="icon_cog" viewBox="0 0 88 88">
       <path fill="currentColor" d="M75.8 52.5c-.7 2.7-1.8 5.2-3.2 7.5.2.2 7.3 9.1 2.9 13.5l-2.2 2.2C70.2 78.9 62 73.8 60 72.5c-2.5 1.4-5.2 2.5-8 3.2h.6s-1.5 11.6-7.8 11.6h-2.1c-4.8 0-7.4-10-7.9-11.8-2.8-.8-5.4-1.9-7.9-3.4l.4.4s-9.2 7.2-13.6 2.8l-1.9-1.6c-3.4-3.3 2-12.2 3.1-13.9-1.3-2.3-2.3-4.8-3.1-7.4C10 52.1 0 49.5 0 44.7v-2.1c0-5.5 9.6-7.4 11.8-7.7.7-2.6 1.8-5.1 3.1-7.4-1-1.6-6.6-10.5-3.3-13.9l2.1-1.7c3.9-3.9 11.8 1.6 13.7 3 2.4-1.4 4.9-2.4 7.5-3.2C35.5 9.3 38.1 0 42.7 0h2.1c5.3 0 7.2 9 7.7 11.6 2.7.7 5.3 1.8 7.6 3.1 2-1.3 10.3-6.4 13.6-3.1l2 2c3.8 3.8-1.5 11.5-3 13.6 1.3 2.4 2.4 4.9 3.2 7.6.7.1 11.6 1.7 11.6 7.8v2.1c-.1 4.5-9.2 7.1-11.7 7.8zM43.7 19.1c-13.6 0-24.6 11-24.6 24.6 0 13.6 11 24.6 24.6 24.6s24.6-11 24.6-24.6c0-13.6-11-24.6-24.6-24.6zm0 41c-9 0-16.4-7.3-16.4-16.4 0-9 7.3-16.4 16.4-16.4 9.1 0 16.4 7.3 16.4 16.4 0 9-7.3 16.4-16.4 16.4zm0-24.6c-4.5 0-8.2 3.7-8.2 8.2 0 4.5 3.7 8.2 8.2 8.2 4.5 0 8.2-3.7 8.2-8.2 0-4.5-3.7-8.2-8.2-8.2z"/> 
    </symbol>
    <symbol id="icon_download" viewBox="0 0 42 37">
       <path fill="#FFF" d="M31.9 29c-1.1 0-2-.9-2-1.9 0-1.1.9-1.9 2-1.9 3.2 0 5.9-2.6 5.9-5.8 0-1.7-.8-3.3-2-4.3-.1-.1-.3-.2-.4-.3-.1-.1-.2-.2-.4-.3h-.1c-.1-.1-.2-.2-.4-.2 0 0-.1 0-.1-.1-.1-.1-.2-.1-.4-.2 0 0-.1 0-.2-.1-.1 0-.2-.1-.3-.1-.1 0-.2 0-.2-.1-.1 0-.2 0-.3-.1-.1 0-.2 0-.3-.1h-1c-.1-.3-.1-.6-.2-1 0-.1-.1-.2-.1-.2-.1-.2-.1-.5-.2-.7 0-.1-.1-.1-.1-.2-.1-.2-.2-.5-.3-.7 0-.1 0-.1-.1-.2-.1-.2-.2-.5-.4-.7-1.9-3.2-5.5-5.3-9.5-5.3s-7.6 2.1-9.5 5.3c-.1.2-.3.5-.4.7 0 .1-.1.1-.1.2-.1.2-.2.5-.3.7 0 .1-.1.1-.1.2-.1.2-.2.5-.2.7 0 .1-.1.2-.1.2-.1.3-.2.6-.2 1h-1c-.1 0-.2 0-.3.1-.1 0-.2.1-.3.1-.1 0-.2 0-.2.1-.1 0-.2.1-.3.1-.1 0-.1 0-.2.1-.1-.1-.2 0-.4 0 0 0-.1 0-.1.1-.1.1-.3.1-.4.2h-.1c-.1.1-.3.2-.4.3-.1.1-.3.2-.4.3-1.2 1.1-2 2.6-2 4.3 0 3.2 2.6 5.8 5.9 5.8 1.1 0 1.9.9 1.9 1.9 0 1.1-.9 1.9-1.9 1.9C4.4 29 0 24.6 0 19.3c0-4.4 2.9-8 6.9-9.3C9.1 4.5 14.5.6 20.8.6s11.8 3.9 14 9.4c4 1.2 6.9 4.9 6.9 9.3 0 5.3-4.4 9.7-9.8 9.7zM15 25.7c.6 0 1.1.3 1.5.7l2.5 2.7v-9.8c0-1.1.9-1.9 2-1.9s2 .9 2 1.9v9.8l2.5-2.7c.4-.4.9-.7 1.4-.7 1.1 0 2 .9 2 1.9 0 .5-.2 1-.5 1.3l-5.9 6.5c-.4.4-.9.6-1.5.6s-1.1-.2-1.5-.6l-6-6.4c-.3-.3-.5-.8-.5-1.3 0-1.1.9-2 2-2z"/> 
    </symbol>
    <symbol id="icon_dribbble-link" viewBox="0 0 186.846 186.846">
       <path fill="currentColor" d="M93.423 0C41.91 0 0 41.91 0 93.424s41.91 93.422 93.423 93.422 93.423-41.91 93.423-93.422S144.936 0 93.423 0zm60.88 44.06c10.488 12.91 16.945 29.206 17.482 46.97-19.428-4.023-37.02-3.55-52.55-.506-2.812-6.576-5.723-12.84-8.66-18.762 16.912-7.286 31.636-16.592 43.728-27.7zM143.78 33.366c-12.004 10.956-25.914 19.068-40.157 25.057C93.17 39.305 83.167 24.91 77.073 16.728 82.35 15.604 87.818 15 93.424 15c19.157 0 36.722 6.915 50.356 18.365zM61.923 21.627c4.6 5.962 15.56 20.89 27.332 42.13-29.586 9.638-58.294 11.262-72.09 11.413 5.75-24.02 22.572-43.77 44.758-53.543zm-46.842 68.58l.442.002c9.532 0 26.996-.642 47.556-4.39 11.73-2.14 22.853-5.02 33.29-8.587 2.717 5.415 5.418 11.127 8.037 17.114-14.614 4.705-26.938 11.475-36.7 18.197-16.37 11.273-27.838 23.78-34.1 31.513C22.013 130.384 15 112.712 15 93.423c0-1.078.038-2.147.082-3.215zm29.334 64.375c5.39-6.788 16.364-19.143 32.237-29.984 10.787-7.368 21.947-12.842 33.436-16.435 6.665 17.278 12.356 36.37 15.75 56.64-9.89 4.508-20.86 7.042-32.417 7.042-18.532 0-35.57-6.475-49.007-17.263zm95.223 2.144c-3.498-18.617-8.713-36.122-14.742-52.12 14.83-2.502 30.157-1.986 45.9 1.55-3.396 20.69-14.91 38.674-31.16 50.57z"/> 
    </symbol>
    <symbol id="icon_dribbble" viewBox="0 0 19 17">
       <path fill="currentColor" d="M17.9 6.8c-.1-.5-.3-1.1-.5-1.6s-.5-1-.8-1.4c-.3-.5-.7-.9-1-1.3-.4-.4-.8-.7-1.3-1-.5-.3-1-.6-1.5-.8-.5-.2-1.1-.4-1.6-.5-.6-.1-1.1-.2-1.7-.2-.6 0-1.2 0-1.7.2-.6.1-1.2.3-1.7.5s-1 .5-1.5.8c-.4.3-.9.6-1.3 1-.3.4-.7.8-1 1.3s-.6.9-.8 1.4c-.2.5-.4 1-.5 1.6-.1.5-.2 1.1-.2 1.7 0 .6.1 1.2.2 1.7s.3 1.1.5 1.6.5 1 .8 1.4c.3.5.7.9 1.1 1.3s.8.7 1.3 1c.5.3 1 .6 1.5.8.5.2 1.1.4 1.6.5.5.1 1.1.2 1.7.2.6 0 1.2 0 1.7-.2.6-.1 1.1-.3 1.6-.5s1-.5 1.5-.8c.5-.3.9-.7 1.3-1s.7-.8 1-1.3c.3-.4.6-.9.8-1.4.2-.5.4-1.1.5-1.6.1-.6.2-1.1.2-1.7 0-.6-.1-1.2-.2-1.7zm-1.1 1.6c-.1 0-2.6-.6-5.1-.2-.1-.1-.1-.3-.2-.4-.2-.4-.3-.7-.5-1 2.9-1.2 4.1-2.9 4.1-2.9 1.1 1.2 1.7 2.8 1.7 4.5zM14.3 3s-1.1 1.6-3.9 2.6c-1.2-2.2-2.6-4-2.7-4.1.6-.1 1.1-.2 1.7-.2 1.9-.1 3.6.6 4.9 1.7zM7.7 1.5zm-1.4.4C6.4 2 7.8 3.8 9 6.1 5.5 7 2.5 7 2.3 7c.4-2.2 2-4.1 4-5.1zM2.1 8.5v-.2c.1 0 3.8.1 7.6-1l.6 1.2c-.1 0-.2.1-.3.1-4 1.3-6 4.8-6 4.8-1.2-1.3-1.9-3-1.9-4.9zm7.4 7.2c-1.8 0-3.4-.6-4.7-1.7.1.1.2.1.2.1s1.4-3 5.8-4.5c1 2.7 1.5 4.9 1.6 5.5-.9.4-1.9.6-2.9.6zm4.1-1.2c-.1-.4-.5-2.6-1.4-5.2 2.4-.4 4.4.3 4.6.3-.4 2.1-1.6 3.8-3.2 4.9z"/> 
    </symbol>
    <symbol id="icon_facebook-link" viewBox="0 0 96.124 96.123">
       <path fill="currentColor" d="M72.09.02L59.623 0C45.62 0 36.57 9.285 36.57 23.656v10.907H24.037c-1.083 0-1.96.878-1.96 1.96v15.804c0 1.083.878 1.96 1.96 1.96H36.57v39.876c0 1.083.877 1.96 1.96 1.96h16.352c1.083 0 1.96-.878 1.96-1.96V54.287h14.654c1.083 0 1.96-.877 1.96-1.96l.006-15.803c0-.52-.207-1.018-.574-1.386-.367-.368-.867-.575-1.387-.575H56.843v-9.246c0-4.444 1.06-6.7 6.848-6.7l8.397-.003c1.082 0 1.96-.878 1.96-1.96V1.98c0-1.08-.877-1.958-1.958-1.96z"/> 
    </symbol>
    <symbol id="icon_facebook" viewBox="0 0 9 17">
       <path fill="currentColor" d="M8.1 0v2.7s-2.1-.2-2.6.6c-.3.4-.1 1.7-.1 2.5h2.7c-.2 1-.4 1.7-.6 2.6H5.3V17H1.5V8.5H-.1V5.8h1.6C1.7 3.9 1.7 2 2.7 1 3.8-.1 4.9 0 8.1 0z"/> 
    </symbol>
    <symbol id="icon_google-plus" viewBox="0 0 486.392 486.392">
       <path fill="currentColor" d="M243.196 0C108.89 0 0 108.89 0 243.196s108.89 243.196 243.196 243.196 243.196-108.89 243.196-243.196C486.392 108.86 377.502 0 243.196 0zm-67.852 406.836c-53.837 0-99.254-21.918-99.254-56.938 0-35.537 41.434-69.858 95.272-69.828l16.81-.152c-7.356-7.144-13.192-15.93-13.192-26.782 0-6.445 2.067-12.616 4.925-18.118l-8.968.304c-44.23 0-73.84-31.463-73.84-70.466 0-38.15 40.887-71.074 84.36-71.074h96.973l-21.766 15.686H225.93c20.398 7.843 31.25 31.615 31.25 55.996 0 20.46-11.338 38.09-27.36 50.615-15.655 12.25-18.603 17.357-18.603 27.754 0 8.877 16.78 23.955 25.536 30.187 25.627 18.12 33.865 34.93 33.865 62.99-.002 35.02-33.897 69.826-95.274 69.826zm189.45-193.462v60.708h-30.37v-60.708h-60.828v-30.977h60.83v-60.8h30.368v60.8h60.8v30.977h-60.8z"/> <path fill="currentColor" d="M205.774 293.02c-7.357-2.37-15.473-3.8-24.137-3.89-37.21-.395-70.527 22.678-70.527 50.433 0 28.332 26.873 51.86 64.082 51.86 52.317 0 70.527-22.13 70.527-50.4 0-3.406-.427-6.75-1.187-10.002-4.073-16.05-18.574-23.985-38.76-38zM222.342 167.35c-4.317-32.772-28.06-59.098-53.017-59.858-24.958-.73-41.708 24.35-37.39 57.18 4.316 32.802 28.058 60.01 53.046 60.74 24.928.76 41.71-25.23 37.362-58.063z"/> 
    </symbol>
    <symbol id="icon_heart" viewBox="0 0 47 41">
       <path fill="#FFF" d="M33.8 0c-3.5 0-6.4 1.3-8.9 3.8l-1.4 1.8-1.4-1.7C19.6 1.4 16.8 0 13.2 0S6.4 1.4 3.9 3.9C1.4 6.3 0 9.7 0 13.2s1.4 6.8 3.9 9.3l17.5 17.6c.6.6 1.3.9 2.1.9s1.5-.3 2.1-.9l17.5-17.6c2.5-2.5 3.9-5.8 3.9-9.3s-1.4-6.8-3.9-9.3S37.3 0 33.8 0z"/> 
    </symbol>
    <symbol id="icon_line-graph" viewBox="0 0 41 40">
       <path fill="#FFF" d="M38.3 40H2.6c-1 0-1.8-.8-1.8-1.8V2.4c0-1 .8-1.9 1.8-1.9h35.6c1 0 1.8.8 1.8 1.9v35.7c.1 1.1-.7 1.9-1.7 1.9zM36.4 4.3h-32v32h32v-32zM7.2 20.6l4.9-3.1c.3-.2.6-.3 1-.3s.7.1 1 .3l8.1 5.4 9.4-6.6c.3-.2.7-.4 1.1-.4 1 0 1.8.8 1.8 1.9 0 .6-.3 1.2-.8 1.5l-10.4 7.4c-.3.2-.7.4-1.1.4-.4 0-.8-.1-1.1-.3l-8.2-5.5L9 23.7c-.3.2-.6.3-1 .3-1 0-1.8-.8-1.8-1.9.1-.6.5-1.2 1-1.5z"/> 
    </symbol>
    <symbol id="icon_link" viewBox="0 0 12 13">
       <path fill="#FFF" d="M11.6 8.3L4.4 1.2S5.5.7 5.8 1l6 5.9c.3.3-.2 1.4-.2 1.4zM5.8 6.2c-.3.3-.8.3-1.2 0L1.5 3c-.3-.3-.3-.9 0-1.2.3-.3.9-.3 1.2 0L5.8 5c.4.3.4.8 0 1.2zm.8 5.9l-6-5.9c-.3-.3.3-1.4.3-1.4L8 11.9s-1 .6-1.4.2zm0-5.1c.3-.3.9-.3 1.2 0l3.2 3.2c.3.3.3.9 0 1.2-.3.3-.9.3-1.2 0L6.6 8.1c-.3-.3-.3-.8 0-1.1z"/> 
    </symbol>
    <symbol id="icon_linkedin" viewBox="0 0 543.906 543.906">
       <path fill="currentColor" d="M82.163 0C36.806 0 0 36.806 0 82.163V461.74c0 45.36 36.806 82.167 82.163 82.167H461.81c45.367 0 82.097-36.806 82.097-82.163V82.164C543.907 36.805 507.17 0 461.81 0H82.162zm66.4 67.7c27.95 0 45.182 18.4 45.71 42.528 0 23.606-17.802 42.457-46.292 42.457h-.505c-27.44 0-45.204-18.852-45.204-42.457 0-24.128 18.314-42.528 46.293-42.528zm241 112.828c53.79 0 94.095 35.115 94.095 110.663v141.047h-81.733v-131.57c0-33.06-11.857-55.62-41.446-55.62-22.58 0-35.98 15.174-41.876 29.87-2.16 5.254-2.747 12.608-2.747 19.96v137.36h-81.733s1.082-222.845 0-245.917h81.733v34.864c10.85-16.768 30.28-40.656 73.705-40.656zm-282.446 5.787h81.727V432.23h-81.727V186.316z"/> 
    </symbol>
    <symbol id="icon_loop" viewBox="0 0 30 30">
       <path fill="currentColor" d="M29 25.2c.5.5.8 1.2.8 2 0 1.5-1.2 2.8-2.8 2.8-.8 0-1.5-.3-2-.8L16.8 21c-1.7 1-3.6 1.6-5.7 1.6C5 22.5 0 17.5 0 11.2S5 0 11.2 0s11.2 5 11.2 11.2c0 2.1-.6 4-1.6 5.7l8.2 8.3zM11.2 2.8c-4.6 0-8.4 3.8-8.4 8.4s3.8 8.4 8.4 8.4c4.6 0 8.4-3.8 8.4-8.4s-3.8-8.4-8.4-8.4z"/> 
    </symbol>
    <symbol id="icon_pill" viewBox="0 0 78 77">
       <path fill="currentColor" d="M8.7 70l-1-1c-9.3-9.3-9.3-24.5 0-33.8l28-28c9.3-9.3 24.5-9.3 33.8 0l1 1c9.3 9.3 9.3 24.5 0 33.8l-28 28c-9.4 9.3-24.5 9.3-33.8 0zm42-19.8L27.5 27l-14 14c-6.1 6.1-6.1 16.1 0 22.2l1 1c6.1 6.1 16.1 6.1 22.2 0l14-14z"/> 
    </symbol>
    <symbol id="icon_pinterest-link" viewBox="0 0 566.713 566.713">
       <path fill="currentColor" d="M283.356 0c39.168 0 75.99 7.446 110.465 22.338 34.48 14.892 64.466 35.088 89.966 60.588s45.695 55.488 60.588 89.964 22.338 71.298 22.338 110.466c0 39.167-7.445 75.99-22.34 110.466-14.893 34.48-35.088 64.463-60.588 89.963s-55.486 45.697-89.965 60.588c-34.474 14.893-71.296 22.34-110.464 22.34-14.28 0-28.05-1.02-41.31-3.063-13.26-2.04-26.214-4.896-38.862-8.568 5.304-8.566 10.608-18.055 15.912-28.46 5.304-10.4 9.384-21.11 12.24-32.128.816-2.854 2.04-7.752 3.672-14.688 1.632-5.713 3.672-13.566 6.12-23.563 2.448-9.996 5.916-23.152 10.404-39.475 4.896 9.385 13.77 17.545 26.622 24.48 12.855 6.937 27.03 10.403 42.535 10.403 22.847 0 43.655-4.895 62.423-14.687 18.77-9.793 34.883-23.36 48.348-40.7 13.468-17.34 23.868-37.84 31.216-61.505 7.344-23.664 11.016-49.367 11.016-77.112 0-20.808-4.285-41.004-12.852-60.588-8.568-19.584-20.605-36.924-36.11-52.02s-34.372-27.132-56.608-36.108c-22.234-8.976-46.816-13.464-73.746-13.464-33.864 0-63.443 5.406-88.74 16.218-25.296 10.812-46.308 24.786-63.036 41.922s-29.376 36.21-37.944 57.222c-8.568 21.012-12.852 41.514-12.852 61.506 0 24.48 4.692 46.613 14.076 66.402 9.384 19.787 24.072 33.762 44.064 41.922 3.264 1.227 6.222 1.227 8.874 0 2.652-1.225 4.386-3.672 5.202-7.344.816-2.45 1.734-6.12 2.754-11.016s1.938-8.773 2.754-11.63c.816-3.67 1.02-6.427.612-8.263s-1.836-4.387-4.284-7.648c-5.712-6.938-10.302-14.79-13.77-23.563-3.468-8.77-5.202-19.48-5.202-32.13 0-17.95 3.264-35.087 9.792-51.407 6.528-16.32 15.81-30.702 27.846-43.146 12.036-12.443 26.622-22.337 43.758-29.68s36.516-11.017 58.14-11.017c18.77 0 35.495 2.754 50.187 8.262 14.688 5.508 27.13 13.056 37.332 22.644 10.198 9.587 17.85 21.01 22.948 34.27 5.1 13.26 7.648 27.643 7.648 43.147 0 20.4-2.143 39.78-6.426 58.14-4.285 18.36-10.404 34.374-18.36 48.042-7.956 13.667-17.44 24.48-28.458 32.437-11.016 7.957-23.256 11.934-36.72 11.934-7.345 0-14.18-1.427-20.503-4.282-6.325-2.854-11.526-6.73-15.606-11.63-4.08-4.894-7.038-10.708-8.874-17.438-1.836-6.732-1.734-13.77.306-21.113 2.04-8.98 4.488-18.055 7.344-27.234s5.61-18.055 8.26-26.623c2.653-8.564 4.897-16.83 6.733-24.785s2.754-15.198 2.754-21.726c0-11.833-3.162-21.93-9.486-30.295-6.322-8.364-16.012-12.546-29.068-12.546-7.344 0-14.382 1.835-21.114 5.507s-12.546 8.874-17.442 15.606-8.772 14.586-11.628 23.562-4.284 18.564-4.284 28.764c0 5.303.408 10.607 1.224 15.91.816 4.488 1.734 9.283 2.754 14.385 1.02 5.1 2.754 9.895 5.202 14.383-8.16 33.047-14.484 59.67-18.972 79.863-4.488 20.196-8.16 35.806-11.016 46.82-3.264 13.054-5.508 22.438-6.732 28.15-2.448 10.606-3.978 21.624-4.59 33.048s-.714 22.033-.306 31.824c-24.888-11.018-47.736-25.297-68.544-42.842s-38.658-37.533-53.55-59.977c-14.892-22.44-26.52-46.92-34.884-73.44C4.183 340.067 0 312.324 0 283.357c0-39.168 7.447-75.99 22.34-110.466s35.087-64.464 60.587-89.964 55.488-45.696 89.964-60.588C207.367 7.446 244.19 0 283.357 0z"/> 
    </symbol>
    <symbol id="icon_pinterest" viewBox="0 0 14 17">
       <path fill="currentColor" d="M6.3 11c-.1.6-.3 1.1-.4 1.7-.1.6-.3 1.1-.5 1.6-.3.9-.8 1.7-1.4 2.4-.4.4-.3.3-.4.3-.1 0-.1-.1-.1-.2-.1-.7 0-1.5 0-2.2 0-.9.2-1.6.4-2.3.3-1.4.6-2.7 1-4.1 0-.1.1-.2.1-.3-.2-.5-.3-.8-.4-1.2-.1-.5 0-.9.1-1.3.2-.7.6-1.3 1.3-1.5.4-.2.9-.1 1.2.1.3.2.5.5.6.8.1.4 0 .9-.1 1.2-.2.8-.4 1.4-.6 2.2-.1.4-.3.8-.2 1.2.1.4.3.6.6.8.3.2.6.3 1.1.3.8 0 1.4-.5 1.8-1 .6-.8 1-1.8 1.1-3.1 0-.4.1-.9 0-1.3-.1-.9-.3-1.5-.8-2.1-.4-.5-1-.9-1.7-1.1-.6-.2-1.6-.3-2.4-.2C5 2 3.9 2.9 3.3 4.1c-.4.6-.6 1.3-.6 2.2 0 .7.2 1.3.5 1.7.1.1.2.2.3.4.1.2 0 .5-.1.8-.1.2-.1.6-.4.6-.1 0-.3-.1-.4-.2-.9-.4-1.5-1.3-1.7-2.4C.8 6.5.8 5.7.9 5c.1-.6.4-1.2.6-1.7.5-1 1.4-1.8 2.3-2.4C4.6.5 5.4.2 6.4 0c.5.1.8 0 1.2 0 1.1 0 2.2.2 2.9.5.8.3 1.5.8 2 1.4.6.6 1 1.3 1.2 2.2.1.5.3 1 .3 1.5s-.1 1.1-.2 1.6c-.3 1.9-1.2 3.4-2.6 4.3-.3.2-.7.4-1.2.5-.4.1-1 .2-1.5.2s-1-.2-1.3-.4c-.4-.1-.7-.4-.9-.8z"/> 
    </symbol>
    <symbol id="icon_plug" viewBox="0 0 65 66">
       <path fill="currentColor" d="M51.8 48.6c-8.5 8.5-21.7 9.2-31 2.2L7.2 64.4C5.6 66 3 66 1.4 64.4c-1.6-1.6-1.6-4.2 0-5.8L15 45c-7-9.3-6.2-22.5 2.2-31l8.2-8.1 5.8 5.8L40.8 2C42.4.4 45 .4 46.6 2s1.6 4.2 0 5.8L37 17.4l11.5 11.5 9.6-9.6c1.6-1.6 4.2-1.6 5.8 0 1.6 1.6 1.6 4.2 0 5.8l-9.6 9.6 5.8 5.8-8.3 8.1z"/> 
    </symbol>
    <symbol id="icon_repeat" viewBox="0 0 52 52">
      <path fill="#FFF" d="M49.6 18.7H39c-1.3 0-2.4-1.1-2.4-2.4s1.1-2.4 2.4-2.4h4.2c-3.8-5.5-10.1-9-17.2-9C14.3 4.9 4.9 14.3 4.9 26c0 1.3-1.1 2.4-2.4 2.4C1.1 28.4 0 27.3 0 26 0 11.6 11.6 0 26 0c8.7 0 16.4 4.3 21.1 10.9V6.5c0-1.3 1.1-2.4 2.4-2.4 1.3 0 2.4 1.1 2.4 2.4v9.8c.1 1.3-1 2.4-2.3 2.4zM2.4 33.3H13c1.4 0 2.4 1.1 2.4 2.4 0 1.3-1.1 2.4-2.4 2.4H8.8C12.6 43.5 18.9 47 26 47c11.7 0 21.1-9.5 21.1-21.1 0-1.4 1.1-2.4 2.4-2.4 1.3 0 2.4 1.1 2.4 2.4 0 14.4-11.6 26-26 26-8.7 0-16.4-4.3-21.1-10.9v4.4c0 1.3-1.1 2.4-2.4 2.4C1 47.8 0 46.7 0 45.4v-9.8c0-1.2 1.1-2.3 2.4-2.3z"/>
    </symbol>
    <symbol id="icon_shop" viewBox="0 0 44 40">
       <path fill="#FFF" d="M43.4 16.3c0 3-2.4 5.4-5.4 5.4-3 0-5.4-2.4-5.4-5.4 0 3-2.4 5.4-5.4 5.4-3 0-5.4-2.4-5.4-5.4 0 3-2.4 5.4-5.4 5.4S11 19.3 11 16.3c0 3-2.4 5.4-5.4 5.4-3 0-5.4-2.4-5.4-5.4L4 6.1h35.7l3.7 10.2zM36.7 4.1H6.9c-1.1 0-2-.9-2-2s.9-2 2-2h29.7c1.1 0 2 .9 2 2 .1 1.1-.8 2-1.9 2zM6.2 23.8c.2 0 .4 0 .6-.1h.1c.1 0 .2 0 .3-.1.4-.1.7-.2 1.1-.3v10h27v-10c.3.1.7.2 1.1.3.1 0 .2 0 .3.1h.1c.2 0 .4.1.6.1h.7c.5 0 .9-.1 1.3-.1v13.7c0 1.1-.9 2-2 2H6.2c-1.1 0-2-.9-2-2V23.6c.4.1.9.1 1.3.1.3.1.5.1.7.1z"/> 
    </symbol>
    <symbol id="icon_telegram" viewBox="0 0 512 512">
       <path fill="#FFF" d="M509.4 21c-2.3-2-5.5-2.5-8.3-1.2L4.4 250.6c-2.7 1.2-4.4 3.9-4.4 6.9s1.6 5.7 4.3 7l140.6 69c2.6 1.3 5.7 1 8-.7l136.7-102.1-107.4 110.1c-1.5 1.6-2.3 3.7-2.1 5.9l10.7 139.1c.2 3.1 2.3 5.7 5.2 6.7.8.3 1.6.4 2.4.4 2.2 0 4.3-.9 5.8-2.7l74.6-86.5 92.2 44.1c2 1 4.3 1 6.4.1 2-.9 3.6-2.6 4.2-4.7L511.6 29c1-2.9.1-6-2.2-8z"/> 
    </symbol>
    <symbol id="icon_twitter-link" viewBox="0 0 18 15">
       <path fill="currentColor" d="M11.9.5c1.4 0 2.1.5 2.8 1.1.6 0 1.4-.4 1.8-.6.1-.1.3-.1.4-.2-.3.7-.6 1.2-1.2 1.6-.1.1-.2.2-.4.3.8 0 1.4-.4 2-.5-.3.5-.8 1-1.2 1.4-.2.1-.4.3-.6.4 0 .8 0 1.6-.2 2.2-.9 3.9-3.2 6.5-6.9 7.7-1.3.4-3.5.6-5 .2-.8-.2-1.4-.4-2.1-.7-.4-.2-.7-.3-1-.5-.1-.1-.2-.1-.3-.2.4 0 .8.1 1.1 0 .4-.1.7 0 1-.1.8-.2 1.5-.4 2.1-.8.3-.2.8-.4 1-.6-.4 0-.8-.1-1.1-.2-1.1-.4-1.8-1.1-2.2-2.2.3 0 1.3.1 1.6-.1-.4 0-.9-.3-1.2-.5-.9-.6-1.7-1.5-1.7-3 .4.2.5.2.7.3.2.1.4.1.7.2.1 0 .3.1.5 0-.2-.2-.5-.3-.7-.5C1.2 4.4.7 3.3 1 2c.1-.3.2-.6.4-.9.1.1.2.2.3.4.3.4.7.7 1.1 1 1.3 1 2.5 1.6 4.3 2.1.5.1 1 .2 1.6.2-.2-.5-.1-1.2 0-1.6.3-1.1 1-1.9 2-2.3.2-.1.5-.2.8-.2.2-.2.3-.2.4-.2z"/> 
    </symbol>
    <symbol id="icon_twitter" viewBox="0 0 18 15">
       <path fill="currentColor" d="M11.9.5c1.4 0 2.1.5 2.8 1.1.6 0 1.4-.4 1.8-.6.1-.1.3-.1.4-.2-.3.7-.6 1.2-1.2 1.6-.1.1-.2.2-.4.3.8 0 1.4-.4 2-.5-.3.5-.8 1-1.2 1.4-.2.1-.4.3-.6.4 0 .8 0 1.6-.2 2.2-.9 3.9-3.2 6.5-6.9 7.7-1.3.4-3.5.6-5 .2-.8-.2-1.4-.4-2.1-.7-.4-.2-.7-.3-1-.5-.1-.1-.2-.1-.3-.2.4 0 .8.1 1.1 0 .4-.1.7 0 1-.1.8-.2 1.5-.4 2.1-.8.3-.2.8-.4 1-.6-.4 0-.8-.1-1.1-.2-1.1-.4-1.8-1.1-2.2-2.2.3 0 1.3.1 1.6-.1-.4 0-.9-.3-1.2-.5-.9-.6-1.7-1.5-1.7-3 .4.2.5.2.7.3.2.1.4.1.7.2.1 0 .3.1.5 0-.2-.2-.5-.3-.7-.5C1.2 4.4.7 3.3 1 2c.1-.3.2-.6.4-.9.1.1.2.2.3.4.3.4.7.7 1.1 1 1.3 1 2.5 1.6 4.3 2.1.5.1 1 .2 1.6.2-.2-.5-.1-1.2 0-1.6.3-1.1 1-1.9 2-2.3.2-.1.5-.2.8-.2.2-.2.3-.2.4-.2z"/> 
    </symbol>
    <symbol id="icon_user" viewBox="0 0 64 62">
       <path fill="#EC4848" d="M64 59c0 1.7-1.3 3-3 3h-1.8c.5-.9.8-1.9.8-3 1.5 0 2.8-.6 3.9-1.5.1.9.1 1.5.1 1.5zm-4-3h-3v3c0 1.7-1.3 3-3 3s-3-1.3-3-3v-3h-3c-1.7 0-3-1.3-3-3s1.3-3 3-3h3v-3c0-1.7 1.3-3 3-3s3 1.3 3 3v3h3c1.7 0 3 1.3 3 3s-1.3 3-3 3zm-12-9c-3.3 0-6 2.7-6 6s2.7 6 6 6c0 1.1.3 2.1.8 3H3c-1.7 0-3-1.3-3-3 0 0 0-10.9 8-14.9 5.1-2.5 3.1-.5 9.3-3 6.2-2.6 7.7-3.5 7.7-3.5l.1-5.9s-2.3-1.8-3-7.4c-1.5.4-1.9-1.7-2-3.1-.1-1.3-.8-5.4.9-5-.4-2.7-.6-5.2-.5-6.5C20.9 5.1 25.3.4 32 0c8 .4 11.2 5.1 11.6 9.7.1 1.3-.1 3.8-.5 6.5 1.8-.4 1 3.7.9 5-.1 1.4-.6 3.5-2 3.1-.7 5.6-3 7.3-3 7.3v5.9s1.5.8 7.7 3.4c1.8.7 2.9 1.1 3.7 1.3C49 43.3 48 45 48 47z"/> 
    </symbol>
    <symbol id="icon_vimeo" viewBox="0 0 299.999 299.999">
       <path fill="currentColor" d="M298.723 68.78c2.238-12.56 2.188-25.477-5.57-35.245-10.824-13.696-33.863-14.2-49.646-11.783-12.84 1.963-56.27 21.124-71.047 66.996 26.182-1.99 39.904 1.887 37.385 30.713-1.055 12.063-7.148 25.276-13.947 37.943-7.857 14.603-22.583 43.277-41.894 22.608-17.394-18.6-16.088-54.18-20.065-77.87-2.217-13.292-4.56-29.857-8.914-43.53-3.753-11.756-12.36-25.93-22.884-29.003-11.304-3.322-25.28 1.863-33.487 6.698C42.522 51.66 22.605 73.515 0 91.54c3.68 7.884 5.687 12.992 12.283 13.95 15.56 2.29 30.39-14.503 40.736 2.97 6.292 10.675 8.26 22.38 12.285 33.89 5.387 15.33 9.54 32.02 13.947 49.647 7.452 29.857 16.618 74.47 42.424 85.398 13.166 5.59 32.957-1.89 42.977-7.83 27.14-16.062 48.29-39.35 66.39-63.04 41.39-56.072 64.226-119.592 67.68-137.745z"/> 
    </symbol>
    <symbol id="icon_zoom" viewBox="0 0 12 12">
       <path fill="#FFF" d="M11.5 11.4l-.3.3c-.3.3-.8.3-1.1 0L7.9 9.5c-.2-.2-.3-.6-.1-.9L6.6 7.5c-.7.4-1.5.7-2.3.7C2.1 8.2.4 6.5.4 4.4S2.1.6 4.3.6s3.9 1.7 3.9 3.8c0 1-.4 1.8-1 2.5L8.4 8c.2-.1.6 0 .9.2l2.2 2.1c.3.3.3.8 0 1.1zm-4.3-7c0-1.6-1.3-2.8-2.9-2.8-.5 0-.9.1-1.3.3l.5.5c-.3 0-1.4 1-1.4 1.3 0 0-.3-.3-.6-.5-.1.4-.2.8-.2 1.2 0 1.6 1.3 2.8 2.9 2.8s3-1.2 3-2.8z"/> 
    </symbol></svg>