<svg xmlns="http://www.w3.org/2000/svg" viewBox="0 0 47 40">
  <path fill="#FFF" d="M37.6 25.4c-5.2 0-9.4-4.2-9.4-9.5s4.2-9.5 9.4-9.5 9.4 4.3 9.4 9.5-4.2 9.5-9.4 9.5zm4.3-11.7h-2.2v-2.2c0-1.2-1-2.2-2.2-2.2-1.2 0-2.2 1-2.2 2.2v2.2h-2.2c-1.2 0-2.2 1-2.2 2.2s1 2.2 2.2 2.2h2.2v2.2c0 1.2 1 2.2 2.2 2.2 1.2 0 2.2-1 2.2-2.2v-2.2h2.2c1.2 0 2.2-1 2.2-2.2s-1-2.2-2.2-2.2zM28.7 8.4l-2.4-4.6c-.2-.3-.3-.6-.3-1 0-1.2 1-2.2 2.2-2.2.9 0 1.6.5 1.9 1.2l2 3.8c-1.3.7-2.5 1.7-3.4 2.8zm-7.3-4.6L16.5 13h-4.9l5.9-11.2c.4-.7 1.1-1.2 1.9-1.2 1.2 0 2.2 1 2.2 2.2 0 .4-.1.7-.2 1zm-3 11.4H26v.7c0 3.7 1.7 7 4.4 9.1v8.4c0 1.2 1 2.2 2.2 2.2s2.2-1 2.2-2.2v-6.2c.9.2 1.9.4 2.9.4 1.2 0 2.4-.2 3.5-.5l-2.8 11.3c-.2 1-1.1 1.7-2.1 1.7H11.5c-1 0-1.9-.7-2.1-1.7L4.7 19.6H2.8c-1.2 0-2.2-1-2.2-2.2 0-1.2 1-2.2 2.2-2.2h15.6zm3.2 18.2c0 1.2 1 2.2 2.2 2.2 1.2 0 2.2-1 2.2-2.2V21.8c0-1.2-1-2.2-2.2-2.2-1.2 0-2.2 1-2.2 2.2v11.6zm-4.3-11.6c0-1.2-1-2.2-2.2-2.2-1.2 0-2.2 1-2.2 2.2v11.7c0 1.2 1 2.2 2.2 2.2 1.2 0 2.2-1 2.2-2.2V21.8z"/>
</svg>
