<svg xmlns="http://www.w3.org/2000/svg" viewBox="0 0 18 12">
  <path fill="currentColor" d="M12.1 1.2h4.3v1.1h-4.3V1.2zM18 7.6h-5.6c.1 1.3.7 1.8 1.9 1.8.8 0 1.5-.3 1.7-.8h1.7c-.6 1.8-1.7 2.3-3.5 2.3-2.4 0-4-1.7-4-4s1.6-4.1 4-4.1c2.7.2 3.9 2.5 3.8 4.8zm-5.6-1.5h3.5c-.2-1.1-.7-1.5-1.7-1.5-1.4 0-1.8.9-1.8 1.5zM9.7 7.8c0 2.2-1.8 3.1-3.8 3.1H.7V.2h5.1c2 0 3.4.7 3.4 2.7 0 1-.5 1.8-1.5 2.2 1.4.4 2 1.4 2 2.7zM5.1 2H2.9v2.5h2.4c.8 0 1.4-.4 1.4-1.3 0-1-.8-1.2-1.6-1.2zm.3 4.1H2.9V9h2.5c.9 0 1.7-.3 1.7-1.4.1-1.1-.6-1.5-1.7-1.5z"/>
</svg>
