<svg xmlns="http://www.w3.org/2000/svg" viewBox="0 0 42 37">
  <path fill="#FFF" d="M31.9 29c-1.1 0-2-.9-2-1.9 0-1.1.9-1.9 2-1.9 3.2 0 5.9-2.6 5.9-5.8 0-1.7-.8-3.3-2-4.3-.1-.1-.3-.2-.4-.3-.1-.1-.2-.2-.4-.3h-.1c-.1-.1-.2-.2-.4-.2 0 0-.1 0-.1-.1-.1-.1-.2-.1-.4-.2 0 0-.1 0-.2-.1-.1 0-.2-.1-.3-.1-.1 0-.2 0-.2-.1-.1 0-.2 0-.3-.1-.1 0-.2 0-.3-.1h-1c-.1-.3-.1-.6-.2-1 0-.1-.1-.2-.1-.2-.1-.2-.1-.5-.2-.7 0-.1-.1-.1-.1-.2-.1-.2-.2-.5-.3-.7 0-.1 0-.1-.1-.2-.1-.2-.2-.5-.4-.7-1.9-3.2-5.5-5.3-9.5-5.3s-7.6 2.1-9.5 5.3c-.1.2-.3.5-.4.7 0 .1-.1.1-.1.2-.1.2-.2.5-.3.7 0 .1-.1.1-.1.2-.1.2-.2.5-.2.7 0 .1-.1.2-.1.2-.1.3-.2.6-.2 1h-1c-.1 0-.2 0-.3.1-.1 0-.2.1-.3.1-.1 0-.2 0-.2.1-.1 0-.2.1-.3.1-.1 0-.1 0-.2.1-.1-.1-.2 0-.4 0 0 0-.1 0-.1.1-.1.1-.3.1-.4.2h-.1c-.1.1-.3.2-.4.3-.1.1-.3.2-.4.3-1.2 1.1-2 2.6-2 4.3 0 3.2 2.6 5.8 5.9 5.8 1.1 0 1.9.9 1.9 1.9 0 1.1-.9 1.9-1.9 1.9C4.4 29 0 24.6 0 19.3c0-4.4 2.9-8 6.9-9.3C9.1 4.5 14.5.6 20.8.6s11.8 3.9 14 9.4c4 1.2 6.9 4.9 6.9 9.3 0 5.3-4.4 9.7-9.8 9.7zM15 25.7c.6 0 1.1.3 1.5.7l2.5 2.7v-9.8c0-1.1.9-1.9 2-1.9s2 .9 2 1.9v9.8l2.5-2.7c.4-.4.9-.7 1.4-.7 1.1 0 2 .9 2 1.9 0 .5-.2 1-.5 1.3l-5.9 6.5c-.4.4-.9.6-1.5.6s-1.1-.2-1.5-.6l-6-6.4c-.3-.3-.5-.8-.5-1.3 0-1.1.9-2 2-2z"/>
</svg>
