<svg xmlns="http://www.w3.org/2000/svg" viewBox="0 0 19 17">
  <path fill="currentColor" d="M17.9 6.8c-.1-.5-.3-1.1-.5-1.6s-.5-1-.8-1.4c-.3-.5-.7-.9-1-1.3-.4-.4-.8-.7-1.3-1-.5-.3-1-.6-1.5-.8-.5-.2-1.1-.4-1.6-.5-.6-.1-1.1-.2-1.7-.2-.6 0-1.2 0-1.7.2-.6.1-1.2.3-1.7.5s-1 .5-1.5.8c-.4.3-.9.6-1.3 1-.3.4-.7.8-1 1.3s-.6.9-.8 1.4c-.2.5-.4 1-.5 1.6-.1.5-.2 1.1-.2 1.7 0 .6.1 1.2.2 1.7s.3 1.1.5 1.6.5 1 .8 1.4c.3.5.7.9 1.1 1.3s.8.7 1.3 1c.5.3 1 .6 1.5.8.5.2 1.1.4 1.6.5.5.1 1.1.2 1.7.2.6 0 1.2 0 1.7-.2.6-.1 1.1-.3 1.6-.5s1-.5 1.5-.8c.5-.3.9-.7 1.3-1s.7-.8 1-1.3c.3-.4.6-.9.8-1.4.2-.5.4-1.1.5-1.6.1-.6.2-1.1.2-1.7 0-.6-.1-1.2-.2-1.7zm-1.1 1.6c-.1 0-2.6-.6-5.1-.2-.1-.1-.1-.3-.2-.4-.2-.4-.3-.7-.5-1 2.9-1.2 4.1-2.9 4.1-2.9 1.1 1.2 1.7 2.8 1.7 4.5zM14.3 3s-1.1 1.6-3.9 2.6c-1.2-2.2-2.6-4-2.7-4.1.6-.1 1.1-.2 1.7-.2 1.9-.1 3.6.6 4.9 1.7zM7.7 1.5zm-1.4.4C6.4 2 7.8 3.8 9 6.1 5.5 7 2.5 7 2.3 7c.4-2.2 2-4.1 4-5.1zM2.1 8.5v-.2c.1 0 3.8.1 7.6-1l.6 1.2c-.1 0-.2.1-.3.1-4 1.3-6 4.8-6 4.8-1.2-1.3-1.9-3-1.9-4.9zm7.4 7.2c-1.8 0-3.4-.6-4.7-1.7.1.1.2.1.2.1s1.4-3 5.8-4.5c1 2.7 1.5 4.9 1.6 5.5-.9.4-1.9.6-2.9.6zm4.1-1.2c-.1-.4-.5-2.6-1.4-5.2 2.4-.4 4.4.3 4.6.3-.4 2.1-1.6 3.8-3.2 4.9z"/>
</svg>
