<svg xmlns="http://www.w3.org/2000/svg" viewBox="0 0 186.846 186.846">
  <path fill="currentColor" d="M93.423 0C41.91 0 0 41.91 0 93.424s41.91 93.422 93.423 93.422 93.423-41.91 93.423-93.422S144.936 0 93.423 0zm60.88 44.06c10.488 12.91 16.945 29.206 17.482 46.97-19.428-4.023-37.02-3.55-52.55-.506-2.812-6.576-5.723-12.84-8.66-18.762 16.912-7.286 31.636-16.592 43.728-27.7zM143.78 33.366c-12.004 10.956-25.914 19.068-40.157 25.057C93.17 39.305 83.167 24.91 77.073 16.728 82.35 15.604 87.818 15 93.424 15c19.157 0 36.722 6.915 50.356 18.365zM61.923 21.627c4.6 5.962 15.56 20.89 27.332 42.13-29.586 9.638-58.294 11.262-72.09 11.413 5.75-24.02 22.572-43.77 44.758-53.543zm-46.842 68.58l.442.002c9.532 0 26.996-.642 47.556-4.39 11.73-2.14 22.853-5.02 33.29-8.587 2.717 5.415 5.418 11.127 8.037 17.114-14.614 4.705-26.938 11.475-36.7 18.197-16.37 11.273-27.838 23.78-34.1 31.513C22.013 130.384 15 112.712 15 93.423c0-1.078.038-2.147.082-3.215zm29.334 64.375c5.39-6.788 16.364-19.143 32.237-29.984 10.787-7.368 21.947-12.842 33.436-16.435 6.665 17.278 12.356 36.37 15.75 56.64-9.89 4.508-20.86 7.042-32.417 7.042-18.532 0-35.57-6.475-49.007-17.263zm95.223 2.144c-3.498-18.617-8.713-36.122-14.742-52.12 14.83-2.502 30.157-1.986 45.9 1.55-3.396 20.69-14.91 38.674-31.16 50.57z"/>
</svg>
