<svg xmlns="http://www.w3.org/2000/svg" viewBox="0 0 486.392 486.392">
  <path fill="currentColor" d="M243.196 0C108.89 0 0 108.89 0 243.196s108.89 243.196 243.196 243.196 243.196-108.89 243.196-243.196C486.392 108.86 377.502 0 243.196 0zm-67.852 406.836c-53.837 0-99.254-21.918-99.254-56.938 0-35.537 41.434-69.858 95.272-69.828l16.81-.152c-7.356-7.144-13.192-15.93-13.192-26.782 0-6.445 2.067-12.616 4.925-18.118l-8.968.304c-44.23 0-73.84-31.463-73.84-70.466 0-38.15 40.887-71.074 84.36-71.074h96.973l-21.766 15.686H225.93c20.398 7.843 31.25 31.615 31.25 55.996 0 20.46-11.338 38.09-27.36 50.615-15.655 12.25-18.603 17.357-18.603 27.754 0 8.877 16.78 23.955 25.536 30.187 25.627 18.12 33.865 34.93 33.865 62.99-.002 35.02-33.897 69.826-95.274 69.826zm189.45-193.462v60.708h-30.37v-60.708h-60.828v-30.977h60.83v-60.8h30.368v60.8h60.8v30.977h-60.8z"/>
  <path fill="currentColor" d="M205.774 293.02c-7.357-2.37-15.473-3.8-24.137-3.89-37.21-.395-70.527 22.678-70.527 50.433 0 28.332 26.873 51.86 64.082 51.86 52.317 0 70.527-22.13 70.527-50.4 0-3.406-.427-6.75-1.187-10.002-4.073-16.05-18.574-23.985-38.76-38zM222.342 167.35c-4.317-32.772-28.06-59.098-53.017-59.858-24.958-.73-41.708 24.35-37.39 57.18 4.316 32.802 28.058 60.01 53.046 60.74 24.928.76 41.71-25.23 37.362-58.063z"/>
</svg>
