<svg xmlns="http://www.w3.org/2000/svg" viewBox="0 0 543.906 543.906">
  <path fill="currentColor" d="M82.163 0C36.806 0 0 36.806 0 82.163V461.74c0 45.36 36.806 82.167 82.163 82.167H461.81c45.367 0 82.097-36.806 82.097-82.163V82.164C543.907 36.805 507.17 0 461.81 0H82.162zm66.4 67.7c27.95 0 45.182 18.4 45.71 42.528 0 23.606-17.802 42.457-46.292 42.457h-.505c-27.44 0-45.204-18.852-45.204-42.457 0-24.128 18.314-42.528 46.293-42.528zm241 112.828c53.79 0 94.095 35.115 94.095 110.663v141.047h-81.733v-131.57c0-33.06-11.857-55.62-41.446-55.62-22.58 0-35.98 15.174-41.876 29.87-2.16 5.254-2.747 12.608-2.747 19.96v137.36h-81.733s1.082-222.845 0-245.917h81.733v34.864c10.85-16.768 30.28-40.656 73.705-40.656zm-282.446 5.787h81.727V432.23h-81.727V186.316z"/>
</svg>
