<?xml version="1.0" encoding="utf-8"?>
<!-- Generator: Avocode 2.6.0 - http://avocode.com -->
<svg height="30" width="30" xmlns:xlink="http://www.w3.org/1999/xlink" xmlns="http://www.w3.org/2000/svg" viewBox="0 0 30 30">
    <path fill="#3f444a" fill-rule="evenodd" d="M 28.98 25.2 C 29.48 25.71 29.8 26.41 29.8 27.19 C 29.8 28.74 28.55 30 27 30 C 26.23 30 25.53 29.69 25.03 29.17 L 25.03 29.17 Z L 16.84 20.93 Z C 15.18 21.92 13.24 22.5 11.17 22.5 C 5 22.5 0 17.46 0 11.25 C 0 5.04 5 0 11.17 0 C 17.34 0 22.35 5.04 22.35 11.25 C 22.35 13.34 21.77 15.28 20.79 16.96 L 28.98 25.2 Z L 28.98 25.2 Z Z M 11.17 2.81 C 6.55 2.81 2.79 6.59 2.79 11.25 C 2.79 15.91 6.55 19.69 11.17 19.69 C 15.8 19.69 19.55 15.91 19.55 11.25 C 19.55 6.59 15.8 2.81 11.17 2.81 Z" />
</svg>