<svg xmlns="http://www.w3.org/2000/svg" viewBox="0 0 14 17">
  <path fill="currentColor" d="M6.3 11c-.1.6-.3 1.1-.4 1.7-.1.6-.3 1.1-.5 1.6-.3.9-.8 1.7-1.4 2.4-.4.4-.3.3-.4.3-.1 0-.1-.1-.1-.2-.1-.7 0-1.5 0-2.2 0-.9.2-1.6.4-2.3.3-1.4.6-2.7 1-4.1 0-.1.1-.2.1-.3-.2-.5-.3-.8-.4-1.2-.1-.5 0-.9.1-1.3.2-.7.6-1.3 1.3-1.5.4-.2.9-.1 1.2.1.3.2.5.5.6.8.1.4 0 .9-.1 1.2-.2.8-.4 1.4-.6 2.2-.1.4-.3.8-.2 1.2.1.4.3.6.6.8.3.2.6.3 1.1.3.8 0 1.4-.5 1.8-1 .6-.8 1-1.8 1.1-3.1 0-.4.1-.9 0-1.3-.1-.9-.3-1.5-.8-2.1-.4-.5-1-.9-1.7-1.1-.6-.2-1.6-.3-2.4-.2C5 2 3.9 2.9 3.3 4.1c-.4.6-.6 1.3-.6 2.2 0 .7.2 1.3.5 1.7.1.1.2.2.3.4.1.2 0 .5-.1.8-.1.2-.1.6-.4.6-.1 0-.3-.1-.4-.2-.9-.4-1.5-1.3-1.7-2.4C.8 6.5.8 5.7.9 5c.1-.6.4-1.2.6-1.7.5-1 1.4-1.8 2.3-2.4C4.6.5 5.4.2 6.4 0c.5.1.8 0 1.2 0 1.1 0 2.2.2 2.9.5.8.3 1.5.8 2 1.4.6.6 1 1.3 1.2 2.2.1.5.3 1 .3 1.5s-.1 1.1-.2 1.6c-.3 1.9-1.2 3.4-2.6 4.3-.3.2-.7.4-1.2.5-.4.1-1 .2-1.5.2s-1-.2-1.3-.4c-.4-.1-.7-.4-.9-.8z"/>
</svg>
