<svg xmlns="http://www.w3.org/2000/svg" viewBox="0 0 566.713 566.713">
  <path fill="currentColor" d="M283.356 0c39.168 0 75.99 7.446 110.465 22.338 34.48 14.892 64.466 35.088 89.966 60.588s45.695 55.488 60.588 89.964 22.338 71.298 22.338 110.466c0 39.167-7.445 75.99-22.34 110.466-14.893 34.48-35.088 64.463-60.588 89.963s-55.486 45.697-89.965 60.588c-34.474 14.893-71.296 22.34-110.464 22.34-14.28 0-28.05-1.02-41.31-3.063-13.26-2.04-26.214-4.896-38.862-8.568 5.304-8.566 10.608-18.055 15.912-28.46 5.304-10.4 9.384-21.11 12.24-32.128.816-2.854 2.04-7.752 3.672-14.688 1.632-5.713 3.672-13.566 6.12-23.563 2.448-9.996 5.916-23.152 10.404-39.475 4.896 9.385 13.77 17.545 26.622 24.48 12.855 6.937 27.03 10.403 42.535 10.403 22.847 0 43.655-4.895 62.423-14.687 18.77-9.793 34.883-23.36 48.348-40.7 13.468-17.34 23.868-37.84 31.216-61.505 7.344-23.664 11.016-49.367 11.016-77.112 0-20.808-4.285-41.004-12.852-60.588-8.568-19.584-20.605-36.924-36.11-52.02s-34.372-27.132-56.608-36.108c-22.234-8.976-46.816-13.464-73.746-13.464-33.864 0-63.443 5.406-88.74 16.218-25.296 10.812-46.308 24.786-63.036 41.922s-29.376 36.21-37.944 57.222c-8.568 21.012-12.852 41.514-12.852 61.506 0 24.48 4.692 46.613 14.076 66.402 9.384 19.787 24.072 33.762 44.064 41.922 3.264 1.227 6.222 1.227 8.874 0 2.652-1.225 4.386-3.672 5.202-7.344.816-2.45 1.734-6.12 2.754-11.016s1.938-8.773 2.754-11.63c.816-3.67 1.02-6.427.612-8.263s-1.836-4.387-4.284-7.648c-5.712-6.938-10.302-14.79-13.77-23.563-3.468-8.77-5.202-19.48-5.202-32.13 0-17.95 3.264-35.087 9.792-51.407 6.528-16.32 15.81-30.702 27.846-43.146 12.036-12.443 26.622-22.337 43.758-29.68s36.516-11.017 58.14-11.017c18.77 0 35.495 2.754 50.187 8.262 14.688 5.508 27.13 13.056 37.332 22.644 10.198 9.587 17.85 21.01 22.948 34.27 5.1 13.26 7.648 27.643 7.648 43.147 0 20.4-2.143 39.78-6.426 58.14-4.285 18.36-10.404 34.374-18.36 48.042-7.956 13.667-17.44 24.48-28.458 32.437-11.016 7.957-23.256 11.934-36.72 11.934-7.345 0-14.18-1.427-20.503-4.282-6.325-2.854-11.526-6.73-15.606-11.63-4.08-4.894-7.038-10.708-8.874-17.438-1.836-6.732-1.734-13.77.306-21.113 2.04-8.98 4.488-18.055 7.344-27.234s5.61-18.055 8.26-26.623c2.653-8.564 4.897-16.83 6.733-24.785s2.754-15.198 2.754-21.726c0-11.833-3.162-21.93-9.486-30.295-6.322-8.364-16.012-12.546-29.068-12.546-7.344 0-14.382 1.835-21.114 5.507s-12.546 8.874-17.442 15.606-8.772 14.586-11.628 23.562-4.284 18.564-4.284 28.764c0 5.303.408 10.607 1.224 15.91.816 4.488 1.734 9.283 2.754 14.385 1.02 5.1 2.754 9.895 5.202 14.383-8.16 33.047-14.484 59.67-18.972 79.863-4.488 20.196-8.16 35.806-11.016 46.82-3.264 13.054-5.508 22.438-6.732 28.15-2.448 10.606-3.978 21.624-4.59 33.048s-.714 22.033-.306 31.824c-24.888-11.018-47.736-25.297-68.544-42.842s-38.658-37.533-53.55-59.977c-14.892-22.44-26.52-46.92-34.884-73.44C4.183 340.067 0 312.324 0 283.357c0-39.168 7.447-75.99 22.34-110.466s35.087-64.464 60.587-89.964 55.488-45.696 89.964-60.588C207.367 7.446 244.19 0 283.357 0z"/>
</svg>
