<svg xmlns="http://www.w3.org/2000/svg" viewBox="0 0 52 52"><path fill="#FFF" d="M49.6 18.7H39c-1.3 0-2.4-1.1-2.4-2.4s1.1-2.4 2.4-2.4h4.2c-3.8-5.5-10.1-9-17.2-9C14.3 4.9 4.9 14.3 4.9 26c0 1.3-1.1 2.4-2.4 2.4C1.1 28.4 0 27.3 0 26 0 11.6 11.6 0 26 0c8.7 0 16.4 4.3 21.1 10.9V6.5c0-1.3 1.1-2.4 2.4-2.4 1.3 0 2.4 1.1 2.4 2.4v9.8c.1 1.3-1 2.4-2.3 2.4zM2.4 33.3H13c1.4 0 2.4 1.1 2.4 2.4 0 1.3-1.1 2.4-2.4 2.4H8.8C12.6 43.5 18.9 47 26 47c11.7 0 21.1-9.5 21.1-21.1 0-1.4 1.1-2.4 2.4-2.4 1.3 0 2.4 1.1 2.4 2.4 0 14.4-11.6 26-26 26-8.7 0-16.4-4.3-21.1-10.9v4.4c0 1.3-1.1 2.4-2.4 2.4C1 47.8 0 46.7 0 45.4v-9.8c0-1.2 1.1-2.3 2.4-2.3z"/></svg>
