<svg xmlns="http://www.w3.org/2000/svg" viewBox="0 0 44 40">
  <path fill="#FFF" d="M43.4 16.3c0 3-2.4 5.4-5.4 5.4-3 0-5.4-2.4-5.4-5.4 0 3-2.4 5.4-5.4 5.4-3 0-5.4-2.4-5.4-5.4 0 3-2.4 5.4-5.4 5.4S11 19.3 11 16.3c0 3-2.4 5.4-5.4 5.4-3 0-5.4-2.4-5.4-5.4L4 6.1h35.7l3.7 10.2zM36.7 4.1H6.9c-1.1 0-2-.9-2-2s.9-2 2-2h29.7c1.1 0 2 .9 2 2 .1 1.1-.8 2-1.9 2zM6.2 23.8c.2 0 .4 0 .6-.1h.1c.1 0 .2 0 .3-.1.4-.1.7-.2 1.1-.3v10h27v-10c.3.1.7.2 1.1.3.1 0 .2 0 .3.1h.1c.2 0 .4.1.6.1h.7c.5 0 .9-.1 1.3-.1v13.7c0 1.1-.9 2-2 2H6.2c-1.1 0-2-.9-2-2V23.6c.4.1.9.1 1.3.1.3.1.5.1.7.1z"/>
</svg>
