<svg xmlns="http://www.w3.org/2000/svg" viewBox="0 0 18 15">
  <path fill="currentColor" d="M11.9.5c1.4 0 2.1.5 2.8 1.1.6 0 1.4-.4 1.8-.6.1-.1.3-.1.4-.2-.3.7-.6 1.2-1.2 1.6-.1.1-.2.2-.4.3.8 0 1.4-.4 2-.5-.3.5-.8 1-1.2 1.4-.2.1-.4.3-.6.4 0 .8 0 1.6-.2 2.2-.9 3.9-3.2 6.5-6.9 7.7-1.3.4-3.5.6-5 .2-.8-.2-1.4-.4-2.1-.7-.4-.2-.7-.3-1-.5-.1-.1-.2-.1-.3-.2.4 0 .8.1 1.1 0 .4-.1.7 0 1-.1.8-.2 1.5-.4 2.1-.8.3-.2.8-.4 1-.6-.4 0-.8-.1-1.1-.2-1.1-.4-1.8-1.1-2.2-2.2.3 0 1.3.1 1.6-.1-.4 0-.9-.3-1.2-.5-.9-.6-1.7-1.5-1.7-3 .4.2.5.2.7.3.2.1.4.1.7.2.1 0 .3.1.5 0-.2-.2-.5-.3-.7-.5C1.2 4.4.7 3.3 1 2c.1-.3.2-.6.4-.9.1.1.2.2.3.4.3.4.7.7 1.1 1 1.3 1 2.5 1.6 4.3 2.1.5.1 1 .2 1.6.2-.2-.5-.1-1.2 0-1.6.3-1.1 1-1.9 2-2.3.2-.1.5-.2.8-.2.2-.2.3-.2.4-.2z"/>
</svg>
