<svg xmlns="http://www.w3.org/2000/svg" viewBox="0 0 64 62">
  <path fill="#EC4848" d="M64 59c0 1.7-1.3 3-3 3h-1.8c.5-.9.8-1.9.8-3 1.5 0 2.8-.6 3.9-1.5.1.9.1 1.5.1 1.5zm-4-3h-3v3c0 1.7-1.3 3-3 3s-3-1.3-3-3v-3h-3c-1.7 0-3-1.3-3-3s1.3-3 3-3h3v-3c0-1.7 1.3-3 3-3s3 1.3 3 3v3h3c1.7 0 3 1.3 3 3s-1.3 3-3 3zm-12-9c-3.3 0-6 2.7-6 6s2.7 6 6 6c0 1.1.3 2.1.8 3H3c-1.7 0-3-1.3-3-3 0 0 0-10.9 8-14.9 5.1-2.5 3.1-.5 9.3-3 6.2-2.6 7.7-3.5 7.7-3.5l.1-5.9s-2.3-1.8-3-7.4c-1.5.4-1.9-1.7-2-3.1-.1-1.3-.8-5.4.9-5-.4-2.7-.6-5.2-.5-6.5C20.9 5.1 25.3.4 32 0c8 .4 11.2 5.1 11.6 9.7.1 1.3-.1 3.8-.5 6.5 1.8-.4 1 3.7.9 5-.1 1.4-.6 3.5-2 3.1-.7 5.6-3 7.3-3 7.3v5.9s1.5.8 7.7 3.4c1.8.7 2.9 1.1 3.7 1.3C49 43.3 48 45 48 47z"/>
</svg>
