<svg xmlns="http://www.w3.org/2000/svg" viewBox="0 0 299.999 299.999">
  <path fill="currentColor" d="M298.723 68.78c2.238-12.56 2.188-25.477-5.57-35.245-10.824-13.696-33.863-14.2-49.646-11.783-12.84 1.963-56.27 21.124-71.047 66.996 26.182-1.99 39.904 1.887 37.385 30.713-1.055 12.063-7.148 25.276-13.947 37.943-7.857 14.603-22.583 43.277-41.894 22.608-17.394-18.6-16.088-54.18-20.065-77.87-2.217-13.292-4.56-29.857-8.914-43.53-3.753-11.756-12.36-25.93-22.884-29.003-11.304-3.322-25.28 1.863-33.487 6.698C42.522 51.66 22.605 73.515 0 91.54c3.68 7.884 5.687 12.992 12.283 13.95 15.56 2.29 30.39-14.503 40.736 2.97 6.292 10.675 8.26 22.38 12.285 33.89 5.387 15.33 9.54 32.02 13.947 49.647 7.452 29.857 16.618 74.47 42.424 85.398 13.166 5.59 32.957-1.89 42.977-7.83 27.14-16.062 48.29-39.35 66.39-63.04 41.39-56.072 64.226-119.592 67.68-137.745z"/>
</svg>
