<svg xmlns="http://www.w3.org/2000/svg" style="width:0; height:0; visibility:hidden;">
    <symbol id="icon_basket-add" viewBox="0 0 47 40">
       <path fill="#FFF" d="M37.6 25.4c-5.2 0-9.4-4.2-9.4-9.5s4.2-9.5 9.4-9.5 9.4 4.3 9.4 9.5-4.2 9.5-9.4 9.5zm4.3-11.7h-2.2v-2.2c0-1.2-1-2.2-2.2-2.2-1.2 0-2.2 1-2.2 2.2v2.2h-2.2c-1.2 0-2.2 1-2.2 2.2s1 2.2 2.2 2.2h2.2v2.2c0 1.2 1 2.2 2.2 2.2 1.2 0 2.2-1 2.2-2.2v-2.2h2.2c1.2 0 2.2-1 2.2-2.2s-1-2.2-2.2-2.2zM28.7 8.4l-2.4-4.6c-.2-.3-.3-.6-.3-1 0-1.2 1-2.2 2.2-2.2.9 0 1.6.5 1.9 1.2l2 3.8c-1.3.7-2.5 1.7-3.4 2.8zm-7.3-4.6L16.5 13h-4.9l5.9-11.2c.4-.7 1.1-1.2 1.9-1.2 1.2 0 2.2 1 2.2 2.2 0 .4-.1.7-.2 1zm-3 11.4H26v.7c0 3.7 1.7 7 4.4 9.1v8.4c0 1.2 1 2.2 2.2 2.2s2.2-1 2.2-2.2v-6.2c.9.2 1.9.4 2.9.4 1.2 0 2.4-.2 3.5-.5l-2.8 11.3c-.2 1-1.1 1.7-2.1 1.7H11.5c-1 0-1.9-.7-2.1-1.7L4.7 19.6H2.8c-1.2 0-2.2-1-2.2-2.2 0-1.2 1-2.2 2.2-2.2h15.6zm3.2 18.2c0 1.2 1 2.2 2.2 2.2 1.2 0 2.2-1 2.2-2.2V21.8c0-1.2-1-2.2-2.2-2.2-1.2 0-2.2 1-2.2 2.2v11.6zm-4.3-11.6c0-1.2-1-2.2-2.2-2.2-1.2 0-2.2 1-2.2 2.2v11.7c0 1.2 1 2.2 2.2 2.2 1.2 0 2.2-1 2.2-2.2V21.8z"/> 
    </symbol>
    <symbol id="icon_beer" viewBox="0 0 50 44">
      <path fill="#FFF" d="M14 24c-1.1 0-2.1-.4-2.8-1.2-.8-.8-1.2-1.7-1.2-2.8v-8h8v12h-4zm32 8V7l2-1-1-6H17l-1 4H1L0 8l2 2v10c0 3.3 1.2 6.1 3.5 8.5C7.9 30.8 10.7 32 14 32h4l-4 6v6h36v-6l-4-6z"/>
    </symbol>
    <symbol id="icon_behance" viewBox="0 0 18 12">
       <path fill="currentColor" d="M12.1 1.2h4.3v1.1h-4.3V1.2zM18 7.6h-5.6c.1 1.3.7 1.8 1.9 1.8.8 0 1.5-.3 1.7-.8h1.7c-.6 1.8-1.7 2.3-3.5 2.3-2.4 0-4-1.7-4-4s1.6-4.1 4-4.1c2.7.2 3.9 2.5 3.8 4.8zm-5.6-1.5h3.5c-.2-1.1-.7-1.5-1.7-1.5-1.4 0-1.8.9-1.8 1.5zM9.7 7.8c0 2.2-1.8 3.1-3.8 3.1H.7V.2h5.1c2 0 3.4.7 3.4 2.7 0 1-.5 1.8-1.5 2.2 1.4.4 2 1.4 2 2.7zM5.1 2H2.9v2.5h2.4c.8 0 1.4-.4 1.4-1.3 0-1-.8-1.2-1.6-1.2zm.3 4.1H2.9V9h2.5c.9 0 1.7-.3 1.7-1.4.1-1.1-.6-1.5-1.7-1.5z"/> 
    </symbol>
    <symbol id="icon_check" viewBox="0 0 58 44">
      <path fill="#FFF" d="M56.9 6.1l-5.1-5c-.7-.7-1.5-1-2.5-1s-1.8.3-2.5 1L22.2 25.4l-11-10.9c-.7-.7-1.5-1-2.5-1s-1.8.4-2.5 1l-5.1 5C.4 20.2 0 21 0 22s.4 1.8 1 2.5l13.5 13.4 5.1 5c.7.7 1.5 1 2.5 1s1.9-.3 2.5-1l5.1-5 27.1-26.8c.7-.7 1.1-1.5 1.1-2.5s-.3-1.8-1-2.5z"/>
    </symbol>
    <symbol id="icon_cog" viewBox="0 0 88 88">
       <path fill="currentColor" d="M75.8 52.5c-.7 2.7-1.8 5.2-3.2 7.5.2.2 7.3 9.1 2.9 13.5l-2.2 2.2C70.2 78.9 62 73.8 60 72.5c-2.5 1.4-5.2 2.5-8 3.2h.6s-1.5 11.6-7.8 11.6h-2.1c-4.8 0-7.4-10-7.9-11.8-2.8-.8-5.4-1.9-7.9-3.4l.4.4s-9.2 7.2-13.6 2.8l-1.9-1.6c-3.4-3.3 2-12.2 3.1-13.9-1.3-2.3-2.3-4.8-3.1-7.4C10 52.1 0 49.5 0 44.7v-2.1c0-5.5 9.6-7.4 11.8-7.7.7-2.6 1.8-5.1 3.1-7.4-1-1.6-6.6-10.5-3.3-13.9l2.1-1.7c3.9-3.9 11.8 1.6 13.7 3 2.4-1.4 4.9-2.4 7.5-3.2C35.5 9.3 38.1 0 42.7 0h2.1c5.3 0 7.2 9 7.7 11.6 2.7.7 5.3 1.8 7.6 3.1 2-1.3 10.3-6.4 13.6-3.1l2 2c3.8 3.8-1.5 11.5-3 13.6 1.3 2.4 2.4 4.9 3.2 7.6.7.1 11.6 1.7 11.6 7.8v2.1c-.1 4.5-9.2 7.1-11.7 7.8zM43.7 19.1c-13.6 0-24.6 11-24.6 24.6 0 13.6 11 24.6 24.6 24.6s24.6-11 24.6-24.6c0-13.6-11-24.6-24.6-24.6zm0 41c-9 0-16.4-7.3-16.4-16.4 0-9 7.3-16.4 16.4-16.4 9.1 0 16.4 7.3 16.4 16.4 0 9-7.3 16.4-16.4 16.4zm0-24.6c-4.5 0-8.2 3.7-8.2 8.2 0 4.5 3.7 8.2 8.2 8.2 4.5 0 8.2-3.7 8.2-8.2 0-4.5-3.7-8.2-8.2-8.2z"/> 
    </symbol>
    <symbol id="icon_download" viewBox="0 0 42 37">
       <path fill="#FFF" d="M31.9 29c-1.1 0-2-.9-2-1.9 0-1.1.9-1.9 2-1.9 3.2 0 5.9-2.6 5.9-5.8 0-1.7-.8-3.3-2-4.3-.1-.1-.3-.2-.4-.3-.1-.1-.2-.2-.4-.3h-.1c-.1-.1-.2-.2-.4-.2 0 0-.1 0-.1-.1-.1-.1-.2-.1-.4-.2 0 0-.1 0-.2-.1-.1 0-.2-.1-.3-.1-.1 0-.2 0-.2-.1-.1 0-.2 0-.3-.1-.1 0-.2 0-.3-.1h-1c-.1-.3-.1-.6-.2-1 0-.1-.1-.2-.1-.2-.1-.2-.1-.5-.2-.7 0-.1-.1-.1-.1-.2-.1-.2-.2-.5-.3-.7 0-.1 0-.1-.1-.2-.1-.2-.2-.5-.4-.7-1.9-3.2-5.5-5.3-9.5-5.3s-7.6 2.1-9.5 5.3c-.1.2-.3.5-.4.7 0 .1-.1.1-.1.2-.1.2-.2.5-.3.7 0 .1-.1.1-.1.2-.1.2-.2.5-.2.7 0 .1-.1.2-.1.2-.1.3-.2.6-.2 1h-1c-.1 0-.2 0-.3.1-.1 0-.2.1-.3.1-.1 0-.2 0-.2.1-.1 0-.2.1-.3.1-.1 0-.1 0-.2.1-.1-.1-.2 0-.4 0 0 0-.1 0-.1.1-.1.1-.3.1-.4.2h-.1c-.1.1-.3.2-.4.3-.1.1-.3.2-.4.3-1.2 1.1-2 2.6-2 4.3 0 3.2 2.6 5.8 5.9 5.8 1.1 0 1.9.9 1.9 1.9 0 1.1-.9 1.9-1.9 1.9C4.4 29 0 24.6 0 19.3c0-4.4 2.9-8 6.9-9.3C9.1 4.5 14.5.6 20.8.6s11.8 3.9 14 9.4c4 1.2 6.9 4.9 6.9 9.3 0 5.3-4.4 9.7-9.8 9.7zM15 25.7c.6 0 1.1.3 1.5.7l2.5 2.7v-9.8c0-1.1.9-1.9 2-1.9s2 .9 2 1.9v9.8l2.5-2.7c.4-.4.9-.7 1.4-.7 1.1 0 2 .9 2 1.9 0 .5-.2 1-.5 1.3l-5.9 6.5c-.4.4-.9.6-1.5.6s-1.1-.2-1.5-.6l-6-6.4c-.3-.3-.5-.8-.5-1.3 0-1.1.9-2 2-2z"/> 
    </symbol>
    <symbol id="icon_dribbble" viewBox="0 0 19 17">
       <path fill="currentColor" d="M17.9 6.8c-.1-.5-.3-1.1-.5-1.6s-.5-1-.8-1.4c-.3-.5-.7-.9-1-1.3-.4-.4-.8-.7-1.3-1-.5-.3-1-.6-1.5-.8-.5-.2-1.1-.4-1.6-.5-.6-.1-1.1-.2-1.7-.2-.6 0-1.2 0-1.7.2-.6.1-1.2.3-1.7.5s-1 .5-1.5.8c-.4.3-.9.6-1.3 1-.3.4-.7.8-1 1.3s-.6.9-.8 1.4c-.2.5-.4 1-.5 1.6-.1.5-.2 1.1-.2 1.7 0 .6.1 1.2.2 1.7s.3 1.1.5 1.6.5 1 .8 1.4c.3.5.7.9 1.1 1.3s.8.7 1.3 1c.5.3 1 .6 1.5.8.5.2 1.1.4 1.6.5.5.1 1.1.2 1.7.2.6 0 1.2 0 1.7-.2.6-.1 1.1-.3 1.6-.5s1-.5 1.5-.8c.5-.3.9-.7 1.3-1s.7-.8 1-1.3c.3-.4.6-.9.8-1.4.2-.5.4-1.1.5-1.6.1-.6.2-1.1.2-1.7 0-.6-.1-1.2-.2-1.7zm-1.1 1.6c-.1 0-2.6-.6-5.1-.2-.1-.1-.1-.3-.2-.4-.2-.4-.3-.7-.5-1 2.9-1.2 4.1-2.9 4.1-2.9 1.1 1.2 1.7 2.8 1.7 4.5zM14.3 3s-1.1 1.6-3.9 2.6c-1.2-2.2-2.6-4-2.7-4.1.6-.1 1.1-.2 1.7-.2 1.9-.1 3.6.6 4.9 1.7zM7.7 1.5zm-1.4.4C6.4 2 7.8 3.8 9 6.1 5.5 7 2.5 7 2.3 7c.4-2.2 2-4.1 4-5.1zM2.1 8.5v-.2c.1 0 3.8.1 7.6-1l.6 1.2c-.1 0-.2.1-.3.1-4 1.3-6 4.8-6 4.8-1.2-1.3-1.9-3-1.9-4.9zm7.4 7.2c-1.8 0-3.4-.6-4.7-1.7.1.1.2.1.2.1s1.4-3 5.8-4.5c1 2.7 1.5 4.9 1.6 5.5-.9.4-1.9.6-2.9.6zm4.1-1.2c-.1-.4-.5-2.6-1.4-5.2 2.4-.4 4.4.3 4.6.3-.4 2.1-1.6 3.8-3.2 4.9z"/> 
    </symbol>
    <symbol id="icon_facebook" viewBox="0 0 9 17">
       <path fill="currentColor" d="M8.1 0v2.7s-2.1-.2-2.6.6c-.3.4-.1 1.7-.1 2.5h2.7c-.2 1-.4 1.7-.6 2.6H5.3V17H1.5V8.5H-.1V5.8h1.6C1.7 3.9 1.7 2 2.7 1 3.8-.1 4.9 0 8.1 0z"/> 
    </symbol>
    <symbol id="icon_heart" viewBox="0 0 47 41">
       <path fill="#FFF" d="M33.8 0c-3.5 0-6.4 1.3-8.9 3.8l-1.4 1.8-1.4-1.7C19.6 1.4 16.8 0 13.2 0S6.4 1.4 3.9 3.9C1.4 6.3 0 9.7 0 13.2s1.4 6.8 3.9 9.3l17.5 17.6c.6.6 1.3.9 2.1.9s1.5-.3 2.1-.9l17.5-17.6c2.5-2.5 3.9-5.8 3.9-9.3s-1.4-6.8-3.9-9.3S37.3 0 33.8 0z"/> 
    </symbol>
    <symbol id="icon_line-graph" viewBox="0 0 41 40">
       <path fill="#FFF" d="M38.3 40H2.6c-1 0-1.8-.8-1.8-1.8V2.4c0-1 .8-1.9 1.8-1.9h35.6c1 0 1.8.8 1.8 1.9v35.7c.1 1.1-.7 1.9-1.7 1.9zM36.4 4.3h-32v32h32v-32zM7.2 20.6l4.9-3.1c.3-.2.6-.3 1-.3s.7.1 1 .3l8.1 5.4 9.4-6.6c.3-.2.7-.4 1.1-.4 1 0 1.8.8 1.8 1.9 0 .6-.3 1.2-.8 1.5l-10.4 7.4c-.3.2-.7.4-1.1.4-.4 0-.8-.1-1.1-.3l-8.2-5.5L9 23.7c-.3.2-.6.3-1 .3-1 0-1.8-.8-1.8-1.9.1-.6.5-1.2 1-1.5z"/> 
    </symbol>
    <symbol id="icon_link" viewBox="0 0 12 13">
       <path fill="#FFF" d="M11.6 8.3L4.4 1.2S5.5.7 5.8 1l6 5.9c.3.3-.2 1.4-.2 1.4zM5.8 6.2c-.3.3-.8.3-1.2 0L1.5 3c-.3-.3-.3-.9 0-1.2.3-.3.9-.3 1.2 0L5.8 5c.4.3.4.8 0 1.2zm.8 5.9l-6-5.9c-.3-.3.3-1.4.3-1.4L8 11.9s-1 .6-1.4.2zm0-5.1c.3-.3.9-.3 1.2 0l3.2 3.2c.3.3.3.9 0 1.2-.3.3-.9.3-1.2 0L6.6 8.1c-.3-.3-.3-.8 0-1.1z"/> 
    </symbol>
    <symbol id="icon_loop" viewBox="0 0 30 30">
       <path fill="currentColor" d="M29 25.2c.5.5.8 1.2.8 2 0 1.5-1.2 2.8-2.8 2.8-.8 0-1.5-.3-2-.8L16.8 21c-1.7 1-3.6 1.6-5.7 1.6C5 22.5 0 17.5 0 11.2S5 0 11.2 0s11.2 5 11.2 11.2c0 2.1-.6 4-1.6 5.7l8.2 8.3zM11.2 2.8c-4.6 0-8.4 3.8-8.4 8.4s3.8 8.4 8.4 8.4c4.6 0 8.4-3.8 8.4-8.4s-3.8-8.4-8.4-8.4z"/> 
    </symbol>
    <symbol id="icon_pill" viewBox="0 0 78 77">
       <path fill="currentColor" d="M8.7 70l-1-1c-9.3-9.3-9.3-24.5 0-33.8l28-28c9.3-9.3 24.5-9.3 33.8 0l1 1c9.3 9.3 9.3 24.5 0 33.8l-28 28c-9.4 9.3-24.5 9.3-33.8 0zm42-19.8L27.5 27l-14 14c-6.1 6.1-6.1 16.1 0 22.2l1 1c6.1 6.1 16.1 6.1 22.2 0l14-14z"/> 
    </symbol>
    <symbol id="icon_pinterest" viewBox="0 0 14 17">
       <path fill="currentColor" d="M6.3 11c-.1.6-.3 1.1-.4 1.7-.1.6-.3 1.1-.5 1.6-.3.9-.8 1.7-1.4 2.4-.4.4-.3.3-.4.3-.1 0-.1-.1-.1-.2-.1-.7 0-1.5 0-2.2 0-.9.2-1.6.4-2.3.3-1.4.6-2.7 1-4.1 0-.1.1-.2.1-.3-.2-.5-.3-.8-.4-1.2-.1-.5 0-.9.1-1.3.2-.7.6-1.3 1.3-1.5.4-.2.9-.1 1.2.1.3.2.5.5.6.8.1.4 0 .9-.1 1.2-.2.8-.4 1.4-.6 2.2-.1.4-.3.8-.2 1.2.1.4.3.6.6.8.3.2.6.3 1.1.3.8 0 1.4-.5 1.8-1 .6-.8 1-1.8 1.1-3.1 0-.4.1-.9 0-1.3-.1-.9-.3-1.5-.8-2.1-.4-.5-1-.9-1.7-1.1-.6-.2-1.6-.3-2.4-.2C5 2 3.9 2.9 3.3 4.1c-.4.6-.6 1.3-.6 2.2 0 .7.2 1.3.5 1.7.1.1.2.2.3.4.1.2 0 .5-.1.8-.1.2-.1.6-.4.6-.1 0-.3-.1-.4-.2-.9-.4-1.5-1.3-1.7-2.4C.8 6.5.8 5.7.9 5c.1-.6.4-1.2.6-1.7.5-1 1.4-1.8 2.3-2.4C4.6.5 5.4.2 6.4 0c.5.1.8 0 1.2 0 1.1 0 2.2.2 2.9.5.8.3 1.5.8 2 1.4.6.6 1 1.3 1.2 2.2.1.5.3 1 .3 1.5s-.1 1.1-.2 1.6c-.3 1.9-1.2 3.4-2.6 4.3-.3.2-.7.4-1.2.5-.4.1-1 .2-1.5.2s-1-.2-1.3-.4c-.4-.1-.7-.4-.9-.8z"/> 
    </symbol>
    <symbol id="icon_plug" viewBox="0 0 65 66">
       <path fill="currentColor" d="M51.8 48.6c-8.5 8.5-21.7 9.2-31 2.2L7.2 64.4C5.6 66 3 66 1.4 64.4c-1.6-1.6-1.6-4.2 0-5.8L15 45c-7-9.3-6.2-22.5 2.2-31l8.2-8.1 5.8 5.8L40.8 2C42.4.4 45 .4 46.6 2s1.6 4.2 0 5.8L37 17.4l11.5 11.5 9.6-9.6c1.6-1.6 4.2-1.6 5.8 0 1.6 1.6 1.6 4.2 0 5.8l-9.6 9.6 5.8 5.8-8.3 8.1z"/> 
    </symbol>
    <symbol id="icon_repeat" viewBox="0 0 52 52">
      <path fill="#FFF" d="M49.6 18.7H39c-1.3 0-2.4-1.1-2.4-2.4s1.1-2.4 2.4-2.4h4.2c-3.8-5.5-10.1-9-17.2-9C14.3 4.9 4.9 14.3 4.9 26c0 1.3-1.1 2.4-2.4 2.4C1.1 28.4 0 27.3 0 26 0 11.6 11.6 0 26 0c8.7 0 16.4 4.3 21.1 10.9V6.5c0-1.3 1.1-2.4 2.4-2.4 1.3 0 2.4 1.1 2.4 2.4v9.8c.1 1.3-1 2.4-2.3 2.4zM2.4 33.3H13c1.4 0 2.4 1.1 2.4 2.4 0 1.3-1.1 2.4-2.4 2.4H8.8C12.6 43.5 18.9 47 26 47c11.7 0 21.1-9.5 21.1-21.1 0-1.4 1.1-2.4 2.4-2.4 1.3 0 2.4 1.1 2.4 2.4 0 14.4-11.6 26-26 26-8.7 0-16.4-4.3-21.1-10.9v4.4c0 1.3-1.1 2.4-2.4 2.4C1 47.8 0 46.7 0 45.4v-9.8c0-1.2 1.1-2.3 2.4-2.3z"/>
    </symbol>
    <symbol id="icon_shop" viewBox="0 0 44 40">
       <path fill="#FFF" d="M43.4 16.3c0 3-2.4 5.4-5.4 5.4-3 0-5.4-2.4-5.4-5.4 0 3-2.4 5.4-5.4 5.4-3 0-5.4-2.4-5.4-5.4 0 3-2.4 5.4-5.4 5.4S11 19.3 11 16.3c0 3-2.4 5.4-5.4 5.4-3 0-5.4-2.4-5.4-5.4L4 6.1h35.7l3.7 10.2zM36.7 4.1H6.9c-1.1 0-2-.9-2-2s.9-2 2-2h29.7c1.1 0 2 .9 2 2 .1 1.1-.8 2-1.9 2zM6.2 23.8c.2 0 .4 0 .6-.1h.1c.1 0 .2 0 .3-.1.4-.1.7-.2 1.1-.3v10h27v-10c.3.1.7.2 1.1.3.1 0 .2 0 .3.1h.1c.2 0 .4.1.6.1h.7c.5 0 .9-.1 1.3-.1v13.7c0 1.1-.9 2-2 2H6.2c-1.1 0-2-.9-2-2V23.6c.4.1.9.1 1.3.1.3.1.5.1.7.1z"/> 
    </symbol>
    <symbol id="icon_telegram" viewBox="0 0 512 512">
       <path fill="#FFF" d="M509.4 21c-2.3-2-5.5-2.5-8.3-1.2L4.4 250.6c-2.7 1.2-4.4 3.9-4.4 6.9s1.6 5.7 4.3 7l140.6 69c2.6 1.3 5.7 1 8-.7l136.7-102.1-107.4 110.1c-1.5 1.6-2.3 3.7-2.1 5.9l10.7 139.1c.2 3.1 2.3 5.7 5.2 6.7.8.3 1.6.4 2.4.4 2.2 0 4.3-.9 5.8-2.7l74.6-86.5 92.2 44.1c2 1 4.3 1 6.4.1 2-.9 3.6-2.6 4.2-4.7L511.6 29c1-2.9.1-6-2.2-8z"/> 
    </symbol>
    <symbol id="icon_twitter" viewBox="0 0 18 15">
       <path fill="currentColor" d="M11.9.5c1.4 0 2.1.5 2.8 1.1.6 0 1.4-.4 1.8-.6.1-.1.3-.1.4-.2-.3.7-.6 1.2-1.2 1.6-.1.1-.2.2-.4.3.8 0 1.4-.4 2-.5-.3.5-.8 1-1.2 1.4-.2.1-.4.3-.6.4 0 .8 0 1.6-.2 2.2-.9 3.9-3.2 6.5-6.9 7.7-1.3.4-3.5.6-5 .2-.8-.2-1.4-.4-2.1-.7-.4-.2-.7-.3-1-.5-.1-.1-.2-.1-.3-.2.4 0 .8.1 1.1 0 .4-.1.7 0 1-.1.8-.2 1.5-.4 2.1-.8.3-.2.8-.4 1-.6-.4 0-.8-.1-1.1-.2-1.1-.4-1.8-1.1-2.2-2.2.3 0 1.3.1 1.6-.1-.4 0-.9-.3-1.2-.5-.9-.6-1.7-1.5-1.7-3 .4.2.5.2.7.3.2.1.4.1.7.2.1 0 .3.1.5 0-.2-.2-.5-.3-.7-.5C1.2 4.4.7 3.3 1 2c.1-.3.2-.6.4-.9.1.1.2.2.3.4.3.4.7.7 1.1 1 1.3 1 2.5 1.6 4.3 2.1.5.1 1 .2 1.6.2-.2-.5-.1-1.2 0-1.6.3-1.1 1-1.9 2-2.3.2-.1.5-.2.8-.2.2-.2.3-.2.4-.2z"/> 
    </symbol>
    <symbol id="icon_user" viewBox="0 0 64 62">
       <path fill="#EC4848" d="M64 59c0 1.7-1.3 3-3 3h-1.8c.5-.9.8-1.9.8-3 1.5 0 2.8-.6 3.9-1.5.1.9.1 1.5.1 1.5zm-4-3h-3v3c0 1.7-1.3 3-3 3s-3-1.3-3-3v-3h-3c-1.7 0-3-1.3-3-3s1.3-3 3-3h3v-3c0-1.7 1.3-3 3-3s3 1.3 3 3v3h3c1.7 0 3 1.3 3 3s-1.3 3-3 3zm-12-9c-3.3 0-6 2.7-6 6s2.7 6 6 6c0 1.1.3 2.1.8 3H3c-1.7 0-3-1.3-3-3 0 0 0-10.9 8-14.9 5.1-2.5 3.1-.5 9.3-3 6.2-2.6 7.7-3.5 7.7-3.5l.1-5.9s-2.3-1.8-3-7.4c-1.5.4-1.9-1.7-2-3.1-.1-1.3-.8-5.4.9-5-.4-2.7-.6-5.2-.5-6.5C20.9 5.1 25.3.4 32 0c8 .4 11.2 5.1 11.6 9.7.1 1.3-.1 3.8-.5 6.5 1.8-.4 1 3.7.9 5-.1 1.4-.6 3.5-2 3.1-.7 5.6-3 7.3-3 7.3v5.9s1.5.8 7.7 3.4c1.8.7 2.9 1.1 3.7 1.3C49 43.3 48 45 48 47z"/> 
    </symbol>
    <symbol id="icon_zoom" viewBox="0 0 12 12">
       <path fill="#FFF" d="M11.5 11.4l-.3.3c-.3.3-.8.3-1.1 0L7.9 9.5c-.2-.2-.3-.6-.1-.9L6.6 7.5c-.7.4-1.5.7-2.3.7C2.1 8.2.4 6.5.4 4.4S2.1.6 4.3.6s3.9 1.7 3.9 3.8c0 1-.4 1.8-1 2.5L8.4 8c.2-.1.6 0 .9.2l2.2 2.1c.3.3.3.8 0 1.1zm-4.3-7c0-1.6-1.3-2.8-2.9-2.8-.5 0-.9.1-1.3.3l.5.5c-.3 0-1.4 1-1.4 1.3 0 0-.3-.3-.6-.5-.1.4-.2.8-.2 1.2 0 1.6 1.3 2.8 2.9 2.8s3-1.2 3-2.8z"/> 
    </symbol></svg>